# xmcd
#
# Track frame offsets: 
#        150
#        13671
#        27282
#        46791
#        60016
#        77159
#        87918
#        101248
#        114305
#        125966
#        142096
#        153140
#        163868
#        179912
#        191799
#
# Disc length: 2727 seconds
#
# Revision: 0
# Processed by: cddbd v1.5.2PL0 Copyright (c) Steve Scherf et al.
# Submitted via: ExactAudioCopy v1.1
#
DISCID=cb0aa50f
DTITLE=Various Artist - Country Music of Your Life: For the Good Time
DTITLE=s [CD2]
DYEAR=2015
DGENRE=Country
TTITLE0=John Denver - Annie’s Song
TTITLE1=Elvis Presley with the Jordanaires - Can’t Help Falling in Lov
TTITLE1=e
TTITLE2=Willie Nelson - Georgia on My Mind
TTITLE3=David Houston - Almost Persuaded
TTITLE4=Ray Price - For the Good Times
TTITLE5=George Jones and Tammy Wynette - Near You
TTITLE6=Charlie Rich - Behind Closed Doors
TTITLE7=Tanya Tucker - Delta Dawn
TTITLE8=Willie Nelson - Blue Skies
TTITLE9=Jim Reeves - Welcome to My World
TTITLE10=Elvis Presley - Crying in the Chapel
TTITLE11=Porter Wagoner and Dolly Parton - Just Someone I Used to Know
TTITLE12=Marty Robbins - My Woman, My Woman, My Wife
TTITLE13=Skeeter Davis - The End of the World
TTITLE14=The Browns - The Three Bells (Les Trois Cloches)
EXTD=
EXTT0=
EXTT1=
EXTT2=
EXTT3=
EXTT4=
EXTT5=
EXTT6=
EXTT7=
EXTT8=
EXTT9=
EXTT10=
EXTT11=
EXTT12=
EXTT13=
EXTT14=
PLAYORDER=
